<svg width="4441" height="2553" viewBox="0 0 4441 2553" fill="none" xmlns="http://www.w3.org/2000/svg">
<mask id="mask0" mask-type="alpha" maskUnits="userSpaceOnUse" x="0" y="0" width="4441" height="2553">
<path d="M0 2332.93L4441 1586.12V2552.5H0V2332.93Z" fill="#00C5F3"/>
<path d="M0.5 0H4440.5V1812.13L0.5 2552.01V0Z" fill="#EEB0C8"/>
</mask>
<g mask="url(#mask0)">
<path d="M1 2325.45L4442 1553.19V2552.5H1V2325.45Z" fill="#67A3ED"/>
<path d="M2 -0.40918H4442V1812L2 2552V-0.40918Z" fill="#9DC5EA"/>
<path d="M4443.29 1314.89C4282.58 1315.59 4123.59 1349.15 3975.39 1413.65C3827.19 1478.15 3692.69 1572.32 3579.56 1690.79C3466.43 1809.26 3376.9 1949.71 3316.06 2104.11C3255.23 2258.52 3219.95 2392.07 3220.67 2558.9L4448.69 2560.37L4443.29 1314.89Z" fill="#FCBFC3" fill-opacity="0.83"/>
<path d="M4444.09 1499.14C4307.2 1499.74 4171.77 1528.34 4045.54 1583.29C3919.3 1638.25 3804.73 1718.49 3708.37 1819.43C3612.01 1920.38 3535.74 2040.04 3483.93 2171.61C3432.11 2303.17 3402.06 2416.96 3402.68 2559.12L4448.69 2560.37L4444.09 1499.14Z" fill="#FF8C66" fill-opacity="0.65"/>
<path d="M4444.95 1697.49C4333.58 1697.98 4223.4 1721.26 4120.7 1765.99C4017.99 1810.73 3924.78 1876.05 3846.39 1958.22C3767.99 2040.39 3705.94 2137.81 3663.79 2244.91C3621.63 2352 3597.18 2444.64 3597.68 2560.36L4448.69 2561.38L4444.95 1697.49Z" fill="#FF7F54" fill-opacity="0.74"/>
<path d="M4445.99 1937.12C4365.64 1937.48 4286.14 1954.27 4212.04 1986.55C4137.94 2018.82 4070.69 2065.94 4014.12 2125.23C3957.56 2184.51 3912.79 2254.79 3882.38 2332.05C3851.96 2409.32 3834.32 2476.15 3834.68 2559.63L4448.69 2560.37L4445.99 1937.12Z" fill="#F75F2C"/>
</g>
</svg>
