<svg width="4442" height="2298" viewBox="0 0 4442 2298" fill="none" xmlns="http://www.w3.org/2000/svg">
<path d="M0 2066L4441 1299V2291.5H0V2066Z" fill="#00C5F3"/>
<path d="M0.5 0H4440.5V1626.79L0.5 2291V0Z" fill="#EEB0C8"/>
<path d="M4442 1299C4308.25 1299 4175.81 1325.34 4052.24 1376.53C3928.67 1427.71 3816.39 1502.74 3721.81 1597.31C3627.24 1691.89 3552.21 1804.17 3501.03 1927.74C3449.84 2051.31 3420 2158.25 3420 2292L4442 2297.5V1299Z" fill="#F75F2C"/>
<path d="M4233.71 1113.83L4330.87 1174.06C4342.67 1181.37 4342.9 1198.47 4331.29 1206.09L4261.1 1252.17C4248.92 1260.17 4249.9 1278.33 4262.87 1284.97L4328.29 1318.47C4341.01 1324.98 4342.26 1342.67 4330.58 1350.91L4260.19 1400.54C4248.37 1408.87 4249.82 1426.82 4262.82 1433.15L4326.63 1464.23C4339.82 1470.65 4341.07 1488.95 4328.88 1497.1L4260.9 1542.59C4248.84 1550.65 4249.91 1568.71 4262.83 1575.3L4329.64 1609.41C4342.08 1615.76 4343.65 1632.92 4332.56 1641.41L4258.51 1698.15C4247.29 1706.74 4249.04 1724.13 4261.74 1730.31L4356.56 1776.49" stroke="#F7B400" stroke-width="40"/>
</svg>
