<svg width="4666" height="3128" viewBox="0 0 4666 3128" fill="none" xmlns="http://www.w3.org/2000/svg">
<path d="M2056.78 711.247C2034.33 967.908 2250.96 1196.52 2540.64 1221.86C2830.33 1247.21 3083.37 1059.69 3105.82 803.027C3128.28 546.366 2911.65 317.756 2621.96 292.412C2332.28 267.068 2079.24 454.587 2056.78 711.247Z" fill="#00C3F7"/>
<path d="M3700.08 375.693C3679.91 606.22 4029.85 1526.31 4308.02 1550.65C4586.2 1574.99 4665.5 808.159 4665.5 584.159C4665.5 333.159 4518.45 26.6908 4240.27 2.3538C3962.1 -21.9832 3720.25 145.167 3700.08 375.693Z" fill="#00C3F7"/>
<path d="M2875.58 693.251C2850 985.673 3096.43 1246.1 3426.01 1274.94C3755.59 1303.77 4043.5 1090.09 4069.09 797.669C4094.67 505.246 3848.24 244.816 3518.66 215.982C3189.08 187.148 2901.17 400.828 2875.58 693.251Z" fill="#00C3F7"/>
<path d="M0 420.159L4666 608.159V3127.66H0V420.159Z" fill="#0065DF"/>
<path d="M4508.27 486.319L4571.22 525.335C4583.02 532.651 4583.25 549.746 4571.64 557.367L4535.64 581.003C4523.46 588.999 4524.44 607.159 4537.41 613.798L4568.62 629.778C4581.33 636.29 4582.58 653.984 4570.91 662.218L4534.7 687.747C4522.88 696.078 4524.33 714.028 4537.33 720.358L4566.93 734.773C4580.11 741.192 4581.36 759.492 4569.18 767.646L4535.38 790.256C4523.33 798.321 4524.39 816.376 4537.31 822.97L4569.91 839.609C4582.35 845.961 4583.92 863.118 4572.83 871.614L4532.96 902.155C4521.75 910.746 4523.5 928.135 4536.2 934.319L4596.8 963.832" stroke="#F7C7DC" stroke-width="40"/>
<circle cx="4506" cy="2455" r="67" fill="#C1E6EB"/>
<circle cx="4390.5" cy="2724.5" r="115.5" fill="#C1E6EB"/>
<circle cx="4391" cy="2178" r="50" fill="#C1E6EB"/>
<circle cx="204.5" cy="1103.5" r="80.5" fill="#C1E6EB"/>
<circle cx="123.5" cy="910.5" r="43.5" fill="#C1E6EB"/>
</svg>
