<svg width="4415" height="2879" viewBox="0 0 4415 2879" fill="none" xmlns="http://www.w3.org/2000/svg">
<mask id="mask0" mask-type="alpha" maskUnits="userSpaceOnUse" x="0" y="0" width="4415" height="2879">
<path d="M0 9.22739e-05L4415 0V2879H0V9.22739e-05Z" fill="#2770C4"/>
</mask>
<g mask="url(#mask0)">
<path d="M1946.51 652.187C1925.28 869.268 2130.13 1062.63 2404.05 1084.06C2677.98 1105.5 2917.26 946.897 2938.49 729.814C2959.73 512.732 2754.88 319.376 2480.95 297.941C2207.03 276.505 1967.75 435.107 1946.51 652.187Z" fill="#6DADF5"/>
<path d="M3501.03 415.725C3476.15 611.297 3907.84 1391.87 4251 1412.52C4594.17 1433.17 4692 782.615 4692 592.581C4692 379.641 4510.59 119.644 4167.42 98.9969C3824.26 78.3502 3525.91 220.155 3501.03 415.725Z" fill="#6DADF5"/>
<path d="M2720.73 685.198C2696.52 933.332 2929.74 1154.32 3241.66 1178.79C3553.57 1203.25 3826.05 1021.93 3850.27 773.801C3874.48 525.666 3641.26 304.679 3329.34 280.212C3017.43 255.745 2744.95 437.063 2720.73 685.198Z" fill="#6DADF5"/>
<path d="M977.26 386.398C1051.63 571.919 767.677 1427.96 397.335 1522.82C26.9794 1617.67 -236.871 1003.83 -282.69 818.296C-334.032 610.401 -198.313 317.078 172.043 222.224C542.386 127.373 902.892 200.877 977.26 386.398Z" fill="#6DADF5"/>
<path d="M2170.9 496.747C2200.38 744.606 1916.32 965.346 1536.4 989.791C1156.48 1014.23 824.601 833.111 795.103 585.252C765.616 337.392 1049.68 116.649 1429.6 92.2094C1809.52 67.7695 2141.4 248.886 2170.9 496.747Z" fill="#6DADF5"/>
<path d="M0.00195312 498.586L4415 498.585V2879H0.00195312V498.586Z" fill="#2770C4"/>
<path d="M193.502 1042.64C235.569 1042.64 269.671 1008.59 269.671 966.582C269.671 924.577 235.569 890.525 193.502 890.525C151.434 890.525 117.332 924.577 117.332 966.582C117.332 1008.59 151.434 1042.64 193.502 1042.64Z" fill="#6DADF5"/>
<path d="M116.857 825.334C139.589 825.334 158.017 806.934 158.017 784.236C158.017 761.538 139.589 743.138 116.857 743.138C94.1252 743.138 75.6973 761.538 75.6973 784.236C75.6973 806.934 94.1252 825.334 116.857 825.334Z" fill="#6DADF5"/>
</g>
</svg>
