<svg width="3375" height="546" viewBox="0 0 3375 546" fill="none" xmlns="http://www.w3.org/2000/svg">
<mask id="mask0" mask-type="alpha" maskUnits="userSpaceOnUse" x="0" y="0" width="3375" height="546">
<rect width="3375" height="546" fill="#C4C4C4"/>
</mask>
<g mask="url(#mask0)">
<path d="M1487.51 508.071C1466.28 720.207 1671.13 909.159 1945.05 930.103C2218.98 951.055 2458.26 796.066 2479.49 583.929C2500.73 371.794 2295.88 182.844 2021.95 161.896C1748.03 140.949 1508.75 295.937 1487.51 508.071Z" fill="#B3D5F6"/>
<path d="M2243.73 396.375C2219.52 637.914 2452.74 853.026 2764.66 876.847C3076.57 900.661 3349.05 724.162 3373.27 482.624C3397.48 241.084 3164.26 25.9699 2852.34 2.1531C2540.43 -21.6636 2267.95 154.835 2243.73 396.375Z" fill="#B3D5F6"/>
<path d="M1572.6 410.375C1606.25 651.914 1282.05 867.026 848.446 890.847C414.846 914.661 36.0666 738.162 2.40002 496.624C-31.2534 255.084 292.954 39.9699 726.554 16.1531C1160.15 -7.66365 1538.93 168.835 1572.6 410.375Z" fill="#B3D5F6"/>
</g>
</svg>
