<svg width="4666" height="3128" viewBox="0 0 4666 3128" fill="none" xmlns="http://www.w3.org/2000/svg">
<path d="M2056.78 711.247C2034.33 967.908 2250.96 1196.52 2540.64 1221.86C2830.33 1247.21 3083.37 1059.69 3105.82 803.027C3128.28 546.366 2911.65 317.756 2621.96 292.412C2332.28 267.068 2079.24 454.587 2056.78 711.247Z" fill="#00C3F7"/>
<path d="M3700.08 375.693C3679.91 606.22 4029.85 1526.31 4308.02 1550.65C4586.2 1574.99 4665.5 808.159 4665.5 584.159C4665.5 333.159 4518.45 26.6908 4240.27 2.3538C3962.1 -21.9832 3720.25 145.167 3700.08 375.693Z" fill="#00C3F7"/>
<path d="M2875.58 693.251C2850 985.673 3096.43 1246.1 3426.01 1274.94C3755.59 1303.77 4043.5 1090.09 4069.09 797.669C4094.67 505.246 3848.24 244.816 3518.66 215.982C3189.08 187.148 2901.17 400.828 2875.58 693.251Z" fill="#00C3F7"/>
<path d="M0 420.159L4666 608.159V3127.66H0V420.159Z" fill="#2E7AE6"/>
<path d="M4508.27 486.319L4571.22 525.335C4583.02 532.651 4583.25 549.746 4571.64 557.367L4535.64 581.003C4523.46 588.999 4524.44 607.159 4537.41 613.798L4568.62 629.778C4581.33 636.29 4582.58 653.984 4570.91 662.218L4534.7 687.747C4522.88 696.078 4524.33 714.028 4537.33 720.358L4566.93 734.773C4580.11 741.192 4581.36 759.492 4569.18 767.646L4535.38 790.256C4523.33 798.321 4524.39 816.376 4537.31 822.97L4569.91 839.609C4582.35 845.961 4583.92 863.118 4572.83 871.614L4532.96 902.155C4521.75 910.746 4523.5 928.135 4536.2 934.319L4596.8 963.832" stroke="#F7C7DC" stroke-width="40"/>
<path d="M4506 2522C4543 2522 4573 2492 4573 2455C4573 2418 4543 2388 4506 2388C4469 2388 4439 2418 4439 2455C4439 2492 4469 2522 4506 2522Z" fill="#C1E6EB"/>
<path d="M4390.5 2840C4454.29 2840 4506 2788.29 4506 2724.5C4506 2660.71 4454.29 2609 4390.5 2609C4326.71 2609 4275 2660.71 4275 2724.5C4275 2788.29 4326.71 2840 4390.5 2840Z" fill="#C1E6EB"/>
<path d="M4391 2228C4418.61 2228 4441 2205.61 4441 2178C4441 2150.39 4418.61 2128 4391 2128C4363.39 2128 4341 2150.39 4341 2178C4341 2205.61 4363.39 2228 4391 2228Z" fill="#C1E6EB"/>
<path d="M204.5 1184C248.959 1184 285 1147.96 285 1103.5C285 1059.04 248.959 1023 204.5 1023C160.041 1023 124 1059.04 124 1103.5C124 1147.96 160.041 1184 204.5 1184Z" fill="#C1E6EB"/>
<path d="M123.5 954C147.524 954 167 934.524 167 910.5C167 886.476 147.524 867 123.5 867C99.4756 867 80 886.476 80 910.5C80 934.524 99.4756 954 123.5 954Z" fill="#C1E6EB"/>
</svg>
