<svg width="3037" height="3104" viewBox="0 0 3037 3104" fill="none" xmlns="http://www.w3.org/2000/svg">
<path d="M8.60861 1561.54C7.57368 1561.25 6.96029 1560.18 7.22108 1559.14L109.54 1149.19C109.799 1148.15 110.831 1147.5 111.88 1147.71L944.087 1317.38C945.881 1317.74 947.183 1315.7 946.097 1314.23L442.015 629.846C441.542 629.203 441.496 628.34 441.898 627.651L574.431 400.683C574.992 399.723 576.227 399.405 577.182 399.973L1282.94 820.496C1284.35 821.34 1286.12 820.206 1285.95 818.567L1200.26 10.6678C1200.12 9.32427 1201.32 8.22892 1202.65 8.49653L1628.6 94.5691C1629.44 94.7387 1630.08 95.4235 1630.19 96.2724L1723.53 816.367C1723.74 818.054 1725.83 818.715 1726.98 817.461L2174.83 328.515C2175.68 327.586 2177.17 327.665 2177.92 328.677L2392.6 619.395C2393 619.94 2393.1 620.653 2392.86 621.287L2181.49 1183.41C2180.93 1184.87 2182.2 1186.37 2183.74 1186.07L2898.18 1046.79C2899.27 1046.58 2900.33 1047.3 2900.53 1048.39L2972.21 1429.15C2972.4 1430.16 2971.78 1431.16 2970.79 1431.44L2559.92 1548.64C2558.25 1549.12 2557.94 1551.36 2559.43 1552.27L3030.27 1841.5C3031.04 1841.97 3031.4 1842.91 3031.13 1843.78L2906.02 2259.29C2905.71 2260.33 2904.62 2260.93 2903.57 2260.64L2187.84 2061.24C2186.26 2060.8 2184.85 2062.34 2185.43 2063.87L2483.23 2853.82C2483.57 2854.71 2483.24 2855.7 2482.44 2856.21L2112.93 3093.39C2111.95 3094.02 2110.64 3093.68 2110.09 3092.65L1725.81 2372.12C1725.02 2370.64 1722.86 2370.73 1722.21 2372.28L1414.74 3096.2C1414.39 3097.03 1413.52 3097.52 1412.63 3097.4L1038.02 3045.81C1036.86 3045.65 1036.09 3044.54 1036.34 3043.39L1208.98 2272.4C1209.34 2270.8 1207.73 2269.48 1206.23 2270.13L451.075 2597.17C450.321 2597.49 449.445 2597.33 448.865 2596.74L224.581 2372.12C223.797 2371.34 223.802 2370.07 224.594 2369.29L808.385 1794.74C809.476 1793.66 809.006 1791.81 807.536 1791.39L8.60861 1561.54Z" fill="#F7B400"/>
</svg>
