<svg width="148" height="702" viewBox="0 0 148 702" fill="none" xmlns="http://www.w3.org/2000/svg">
<path d="M12.7072 18.8306L109.871 79.057C121.674 86.3732 121.897 103.467 110.289 111.089L40.0979 157.173C27.9206 165.168 28.9002 183.329 41.8669 189.968L107.293 223.466C120.012 229.978 121.261 247.672 109.583 255.906L39.1866 305.542C27.3714 313.873 28.8191 331.823 41.8166 338.153L105.633 369.23C118.815 375.65 120.066 393.95 107.88 402.104L39.8978 447.589C27.8428 455.655 28.9067 473.709 41.8256 480.303L108.64 514.408C121.084 520.759 122.647 537.916 111.558 546.413L37.5074 603.147C26.2942 611.738 28.0439 629.127 40.744 635.311L135.561 681.486" stroke="#F7B400" stroke-width="40"/>
</svg>
