<svg width="4415" height="5594" viewBox="0 0 4415 5594" fill="none" xmlns="http://www.w3.org/2000/svg">
<mask id="mask0" mask-type="alpha" maskUnits="userSpaceOnUse" x="0" y="0" width="4415" height="5594">
<rect width="4415" height="5594" fill="#C4C4C4"/>
</mask>
<g mask="url(#mask0)">
<mask id="mask1" mask-type="alpha" maskUnits="userSpaceOnUse" x="-4431" y="-169" width="10151" height="5763">
<path d="M-4431 154.874L874.421 -169L5720 154.874V5594H-4431V154.874Z" fill="#FFDB5B"/>
</mask>
<g mask="url(#mask1)">
<path d="M7123.31 6978.79C7682.81 6171.89 7993.7 5352.68 8038.24 4567.93C8082.78 3783.18 7860.09 3048.27 7382.89 2405.15C6905.69 1762.03 6183.32 1223.3 5257.03 819.718C4330.74 416.134 3218.67 155.602 1984.3 52.9961C749.943 -49.6098 -582.534 7.72035 -1937.05 221.713C-3291.56 435.706 -4641.58 802.171 -5910.03 1300.18C-7178.48 1798.2 -8340.52 2418 -9329.8 3124.22C-10319.1 3830.44 -11116.2 4609.23 -11675.7 5416.13L-2276.21 6197.46L7123.31 6978.79Z" fill="#FFE8A8"/>
<path d="M5244 6438.41C5710.95 5764.97 5977.35 5081.84 6028 4428.02C6078.65 3774.19 5912.54 3162.48 5539.17 2627.81C5165.8 2093.13 4592.47 1645.97 3851.93 1311.85C3111.38 977.722 2218.12 763.182 1223.14 680.474C228.155 597.767 -849.055 648.512 -1946.99 829.813C-3044.93 1011.11 -4142.09 1319.42 -5175.83 1737.13C-6209.58 2154.83 -7159.66 2673.76 -7971.83 3264.29C-8784 3854.81 -9442.36 4505.36 -9909.31 5178.79L-2332.66 5808.6L5244 6438.41Z" fill="#FFDE83"/>
<path d="M3163.32 6242.58C3534.37 5707.46 3759.99 5165.79 3827.28 4648.5C3894.58 4131.2 3802.24 3648.42 3555.54 3227.72C3308.84 2807.01 2912.61 2456.62 2389.47 2196.55C1866.33 1936.48 1226.53 1771.82 506.594 1711.97C-213.341 1652.13 -999.311 1698.27 -1806.44 1847.77C-2613.57 1997.26 -3426.05 2247.18 -4197.49 2583.25C-4968.93 2919.32 -5684.23 3334.97 -6302.54 3806.46C-6920.86 4277.94 -7430.07 4796.04 -7801.12 5331.16L-2318.9 5786.87L3163.32 6242.58Z" fill="#FFCE43"/>
<path d="M1216.29 6054.5C1497.87 5648.42 1685.72 5238.75 1769.13 4848.89C1852.53 4459.03 1829.86 4096.6 1702.4 3782.32C1574.94 3468.03 1345.19 3208.03 1026.27 3017.16C707.355 2826.29 305.51 2708.29 -156.317 2669.9C-618.144 2631.52 -1130.91 2673.49 -1665.34 2793.42C-2199.76 2913.35 -2745.38 3108.9 -3271.05 3368.9C-3796.71 3628.9 -4292.12 3948.25 -4729 4308.73C-5165.87 4669.22 -5535.65 5063.76 -5817.22 5469.84L-2300.46 5762.17L1216.29 6054.5Z" fill="#F7B600"/>
</g>
</g>
</svg>
